<?xml version="1.0" encoding="UTF-8"?>
<svg viewBox="0 0 476.61215 520.60712" xmlns="http://www.w3.org/2000/svg">
 <g transform="translate(-107.41 -172.06)" fill="#fff" stroke="#000" stroke-linecap="round" stroke-linejoin="round" stroke-width="10">
  <path d="m403.58 615.35s-53.493-70.163-87.814-78.839-114.71 27.629-114.71 27.629 56.375-60.523 47.867-107.85-141.52-144.92-141.52-144.92 139.16 82.246 197.19 56.49 96.114-195.81 96.114-195.81-33.035 174.26 5.1328 221.47 178.18 42.499 178.18 42.499-143.94 25.93-171.23 61.71-9.2096 117.61-9.2096 117.61z"/>
  <path d="m554.69 590.01s-137.04-90.857-193.17-69.365-92.8 172.02-92.8 172.02 32.52-161.69 10.119-200.82-88.254-46.019-88.254-46.019 70.031-19.344 87.286-43.584 13.023-99.957 13.023-99.957 40.916 63.865 69.101 73.413 96.29-15.78 96.29-15.78-51.924 44.498-44.582 88.958 142.98 141.14 142.98 141.14z"/>
 </g>
</svg>
